<svg viewBox="0 0 335 96" fill="none" xmlns="http://www.w3.org/2000/svg">
<path d="M175.648 23.0149V0H107.629V20.3191C121.058 22.0593 131.459 33.5365 131.459 47.4481C131.459 61.3596 121.068 72.8469 107.629 74.5771V95.902H175.648V72.8872H137.625V58.8247H172.147V35.8099H137.625V23.0249H175.648V23.0149Z" fill="#FDF3EA"/>
<path d="M221.205 55.626L215.874 95.9121H180.355L194.026 46.2913L181.522 0H216.377L221.215 37.0874L226.053 0H260.908L248.404 46.2913L262.074 95.9121H226.556L221.215 55.626H221.205Z" fill="#FDF3EA"/>
<path d="M264.637 0H334.999V23.0149H318.512V95.9121H281.123V23.0149H264.637V0Z" fill="#FDF3EA"/>
<path d="M76.7196 47.4481C76.7196 32.8827 88.0963 20.983 102.43 20.138V0H70.5434V78.5202L56.6319 0H0V95.9121H31.8869V16.2452L45.225 95.9121H102.44V74.7682C88.1063 73.9132 76.7297 62.0034 76.7297 47.4581L76.7196 47.4481Z" fill="#FDF3EA"/>
<path d="M90.2991 43.3045V46.5536H87.7341V43.3045L85.1992 39.291H87.9856L88.4986 40.2667L89.0216 41.3129L89.5447 40.2667L90.0577 39.291H92.8239L90.2991 43.3045Z" fill="#FDF3EA"/>
<path d="M94.9338 41.5552C94.7527 41.8368 94.6723 42.2996 94.6723 42.9433C94.6723 43.5871 94.7527 44.0297 94.9338 44.3315C95.1148 44.6131 95.3865 44.7741 95.7486 44.7741C96.1107 44.7741 96.4024 44.6332 96.5633 44.3315C96.7243 44.0498 96.8148 43.5871 96.8148 42.9433C96.8148 42.2996 96.7344 41.857 96.5633 41.5552C96.4024 41.2735 96.1308 41.1126 95.7486 41.1126C95.3663 41.1126 95.1148 41.2534 94.9338 41.5552ZM98.4544 40.1872C99.1083 40.841 99.4201 41.7564 99.4201 42.9433C99.4201 44.1303 99.0982 45.0356 98.4544 45.6995C97.8006 46.3533 96.9054 46.6853 95.7486 46.6853C94.9942 46.6853 94.3303 46.5444 93.777 46.2427C93.2238 45.9509 92.8013 45.5184 92.4995 44.9652C92.2078 44.4119 92.0469 43.738 92.0469 42.9433C92.0469 42.1487 92.1978 41.4848 92.4995 40.9215C92.7912 40.3682 93.2238 39.9256 93.777 39.644C94.3303 39.3523 94.9841 39.2014 95.7486 39.2014C96.9054 39.1913 97.8106 39.5233 98.4544 40.1872Z" fill="#FDF3EA"/>
<path d="M106.966 43.4353C106.966 45.5879 105.8 46.6642 103.456 46.6642C101.112 46.6642 99.9453 45.5879 99.9453 43.4353V39.291H102.52V43.6264C102.52 43.9885 102.601 44.2702 102.752 44.4513C102.903 44.6424 103.144 44.7329 103.446 44.7329C103.748 44.7329 103.989 44.6424 104.14 44.4513C104.301 44.2601 104.371 43.9885 104.371 43.6264V39.291H106.936V43.4353H106.946H106.966Z" fill="#FDF3EA"/>
<path d="M114.709 46.5536H111.953L110.212 43.2542L109.82 42.3691H109.8L109.85 43.8578V46.5536H107.617V39.291H110.383L112.114 42.6004L112.506 43.4856H112.526L112.486 41.9868V39.291H114.699V46.5536H114.709Z" fill="#FDF3EA"/>
<path d="M119.041 42.4606H122.391V46.5546H120.701L120.62 45.7297C120.238 46.3534 119.594 46.6652 118.659 46.6652C118.025 46.6652 117.452 46.5244 116.949 46.2427C116.446 45.9611 116.043 45.5487 115.742 44.9854C115.45 44.4321 115.289 43.7582 115.289 42.9535C115.289 41.7665 115.621 40.8511 116.285 40.1872C116.949 39.5234 117.864 39.1914 119.051 39.1914C119.946 39.1914 120.671 39.3423 121.204 39.6541C121.737 39.9659 122.149 40.4689 122.441 41.1831L120.057 42.0482C119.966 41.4346 119.655 41.1227 119.152 41.1227C118.729 41.1227 118.417 41.2636 118.216 41.5653C118.015 41.847 117.925 42.3097 117.925 42.9535C117.925 43.6274 118.035 44.1102 118.246 44.4019C118.458 44.6836 118.79 44.8445 119.252 44.8445C119.574 44.8445 119.836 44.7842 120.017 44.6534C120.208 44.5226 120.298 44.3315 120.298 44.0901L119.081 44.0801V42.4907H119.041V42.4606Z" fill="#FDF3EA"/>
<path d="M84.8189 55.3237C84.0645 55.3237 83.4006 55.1829 82.8473 54.8811C82.2941 54.5894 81.8716 54.1569 81.5698 53.6036C81.2781 53.0504 81.1172 52.3764 81.1172 51.5818C81.1172 50.7871 81.2681 50.1232 81.5698 49.5599C81.8615 49.0067 82.2941 48.5641 82.8473 48.2824C83.4006 47.9907 84.0544 47.8398 84.8189 47.8398C85.6739 47.8398 86.3881 48.0209 86.9916 48.383C87.5951 48.7451 87.9573 49.2984 88.1182 50.0427L85.9254 50.9078C85.865 50.4552 85.7644 50.1635 85.6035 50.0126C85.4526 49.8617 85.2112 49.7712 84.8994 49.7712C84.5171 49.7712 84.2355 49.912 84.0343 50.2137C83.8432 50.5055 83.7526 50.9682 83.7526 51.5818C83.7526 52.1954 83.8432 52.6581 84.0242 52.9498C84.2053 53.2415 84.4869 53.3924 84.8792 53.3924C85.2212 53.3924 85.4727 53.3119 85.6236 53.151C85.7745 53.0001 85.8751 52.7486 85.9153 52.3965L88.1786 52.98C87.7963 54.5391 86.6898 55.3237 84.8289 55.3237H84.8189Z" fill="#FDF3EA"/>
<path d="M92.4394 52.2343L91.856 49.8101H91.8158L91.5341 51.0373L91.2424 52.2243H92.4394V52.2343ZM92.8015 53.8236H90.8501L90.5081 55.2118H87.9531L90.3069 47.9492H93.3749L95.7388 55.2118H93.1335L92.8015 53.8236Z" fill="#FDF3EA"/>
<path d="M100.229 50.9887C100.37 50.878 100.44 50.707 100.44 50.4656C100.44 50.2242 100.37 50.0633 100.229 49.9426C100.088 49.8319 99.8669 49.7816 99.5451 49.7816H98.68V51.1396H99.5451C99.8669 51.1496 100.088 51.0893 100.229 50.9887ZM103.005 50.5059C103.005 51.2904 102.744 51.894 102.241 52.3064C101.738 52.7188 100.963 52.92 99.9776 52.92H98.69V55.2235H96.125V47.9609H99.9675C101.999 47.9609 103.015 48.8159 103.015 50.5059H103.005Z" fill="#FDF3EA"/>
<path d="M106.108 47.9414H103.543V55.204H106.108V47.9414Z" fill="#FDF3EA"/>
<path d="M113.805 49.8302H111.531V55.2218H108.976V49.8302H106.703V47.9492H113.805V49.8302Z" fill="#FDF3EA"/>
<path d="M117.127 52.2343L116.544 49.8101H116.503L116.222 51.0373L115.93 52.2243H117.127V52.2343ZM117.489 53.8236H115.538L115.196 55.2118H112.641L114.994 47.9492H118.062L120.426 55.2118H117.821L117.489 53.8236Z" fill="#FDF3EA"/>
<path d="M126.817 53.3408V55.2218H120.973V47.9492H123.538V53.3408H126.817Z" fill="#FDF3EA"/>
</svg>
